<svg xmlns="http://www.w3.org/2000/svg" viewBox="0 0 375.148 375.148"><path d="M222.076 218.936h-68.963c-5.771 0-10.449 4.678-10.449 10.449v135.314c0 5.771 4.678 10.449 10.449 10.449h68.963c5.771 0 10.449-4.678 10.449-10.449V229.385c0-5.771-4.678-10.449-10.449-10.449zM211.627 354.25h-48.065V239.834h48.065V354.25zm147.331-217.339h-69.486c-5.771 0-10.449 4.678-10.449 10.449v217.339c0 5.771 4.678 10.449 10.449 10.449h69.486c5.771 0 10.449-4.678 10.449-10.449V147.36c0-5.77-4.678-10.449-10.449-10.449zM348.509 354.25h-48.588V157.809h48.588V354.25zM85.717 269.613H16.231c-5.771 0-10.449 4.678-10.449 10.449v84.637c0 5.771 4.678 10.449 10.449 10.449h69.486c5.771 0 10.449-4.678 10.449-10.449v-84.637c0-5.77-4.678-10.449-10.449-10.449zM75.268 354.25H26.68v-63.739h48.588v63.739zM370.452 10.479a8.882 8.882 0 0 0-6.792-3.657L268.574.03c-5.771-.433-10.8 3.895-11.233 9.665-.433 5.771 3.894 10.8 9.665 11.233l67.297 4.57-123.721 96.786-94.563-74.188a10.45 10.45 0 0 0-13.584.522L5.26 141.613c-4.131 3.919-4.363 10.425-.522 14.629a9.404 9.404 0 0 0 7.837 3.657 10.446 10.446 0 0 0 7.314-3.135l90.384-86.727 93.518 73.665a10.45 10.45 0 0 0 13.061 0L350.601 39.624l-5.227 64.896a10.97 10.97 0 0 0 9.927 10.971h.522a10.45 10.45 0 0 0 10.449-9.404l6.792-88.294a8.36 8.36 0 0 0-2.612-7.314z"/></svg>