<svg height="511pt" viewBox="1 -28 511.999 511" width="511pt" xmlns="http://www.w3.org/2000/svg"><path d="M456.832.5H55.168C24.746.5 0 25.246 0 55.668V360.93c0 30.422 24.746 55.168 55.168 55.168h154.453l35.774 35.773c2.93 2.93 6.765 4.39 10.605 4.39s7.68-1.464 10.605-4.39l35.774-35.773h154.453c30.418 0 55.168-24.746 55.168-55.168V55.668C512 25.246 487.254.5 456.832.5zM482 360.93c0 13.879-11.29 25.168-25.168 25.168H296.168a15 15 0 0 0-10.61 4.394L256 420.051l-29.559-29.559a14.986 14.986 0 0 0-10.605-4.394H55.168C41.289 386.098 30 374.808 30 360.93V55.668C30 41.789 41.29 30.5 55.168 30.5h401.664C470.711 30.5 482 41.79 482 55.668zm0 0"/><path d="M359.285 135.918c-39.91 0-72.383 32.469-72.383 72.379 0 15.82 5.118 30.457 13.762 42.383h-89.328c8.644-11.922 13.762-26.563 13.762-42.383 0-39.91-32.473-72.379-72.383-72.379s-72.38 32.469-72.38 72.379c0 39.914 32.47 72.383 72.38 72.383h206.57c39.91 0 72.383-32.47 72.383-72.383 0-39.91-32.473-72.379-72.383-72.379zm-248.95 72.379c0-23.367 19.013-42.379 42.38-42.379 23.37 0 42.383 19.012 42.383 42.379 0 23.371-19.012 42.383-42.383 42.383-23.367-.004-42.38-19.012-42.38-42.383zm248.95 42.379c-23.367 0-42.383-19.012-42.383-42.38 0-23.37 19.016-42.382 42.383-42.382 23.371 0 42.383 19.012 42.383 42.383s-19.012 42.379-42.383 42.379zm0 0"/></svg>